Coordinates
version=1
nRows=29
nColumns=22
inDegrees=yes

Units are S.I. units (second, meters, Newtons, ...)
If the header above contains a line with 'inDegrees', this indicates whether rotational values are in degrees (yes) or radians (no).

endheader
time	pelvis_tilt	pelvis_list	pelvis_rotation	pelvis_tx	pelvis_ty	pelvis_tz	hip_flexion_r	hip_adduction_r	hip_rotation_r	knee_angle_r	ankle_angle_r	subtalar_angle_r	hip_flexion_l	hip_adduction_l	hip_rotation_l	knee_angle_l	ankle_angle_l	subtalar_angle_l	lumbar_extension	lumbar_bending	lumbar_rotation
      1.87000000	      0.11789128	     -4.07889909	     55.34762197	      0.94028620	      0.98193776	      0.75600715	     27.62946782	     -1.22026099	      5.07072823	    -18.47389885	     -0.36938012	     16.75070766	     -6.40418386	      1.98470223	      0.12791161	    -33.85272103	     -0.65566756	     -4.04523059	      0.22190177	     -0.92693792	     -7.47494410
      1.88000000	      0.46909714	     -4.40388711	     55.98491939	      0.94815753	      0.98302724	      0.74692446	     27.39261399	     -0.86450517	      4.70578810	    -19.28745540	     -0.80781395	     16.46954002	     -5.02280910	      0.99571704	     -1.90557053	    -36.81879842	     -3.05888478	     -4.33068944	      0.50702849	     -0.40360150	     -7.28973088
      1.89000000	      0.92871884	     -4.67893282	     56.59232906	      0.95587427	      0.98430002	      0.73809692	     27.03364288	     -0.43783410	      4.26840071	    -20.05882601	     -0.98873440	     16.22098955	     -3.61252764	     -0.13185553	     -3.89653301	    -39.92052136	     -5.31264124	     -4.59787719	      0.62199352	      0.17550796	     -7.07692508
      1.90000000	      1.46895755	     -4.88828356	     57.18884581	      0.96339204	      0.98575480	      0.72949818	     26.52655400	      0.03257872	      3.79855282	    -20.72962939	     -0.93759900	     15.95011430	     -2.19664116	     -1.33354473	     -5.69992388	    -43.09552629	     -7.29403925	     -4.82177591	      0.57454962	      0.77518075	     -6.85085198
      1.91000000	      2.05347747	     -5.02449226	     57.79356679	      0.97066816	      0.98736453	      0.72110420	     25.87905617	      0.51358011	      3.31810962	    -21.28084030	     -0.69767266	     15.66106156	     -0.77833331	     -2.53783717	     -7.22429197	    -46.28028304	     -8.88155295	     -4.96343171	      0.38735241	      1.35453277	     -6.63602066
      1.92000000	      2.64771842	     -5.09528635	     58.42771495	      0.97757017	      0.98904897	      0.71286931	     25.13237701	      0.97169397	      2.81760328	    -21.73500867	     -0.29443704	     15.28856725	      0.66501815	     -3.65548363	     -8.37439419	    -49.42048789	     -9.99247675	     -5.11881013	      0.08832440	      1.90354320	     -6.42091078
      1.93000000	      3.20317378	     -5.09299594	     59.11001265	      0.98407411	      0.99078257	      0.70475757	     24.31130565	      1.35154240	      2.26654106	    -22.09440742	      0.21216377	     14.81059353	      2.13696934	     -4.60865366	     -9.15839861	    -52.43304653	    -10.59760907	     -5.30850695	     -0.28750067	      2.36151237	     -6.19175980
      1.94000000	      3.69414629	     -5.03064244	     59.85281359	      0.99013574	      0.99253927	      0.69671350	     23.42938361	      1.63190694	      1.69733860	    -22.33937497	      0.77245625	     14.37933940	      3.64647531	     -5.36731393	     -9.64135416	    -55.24351011	    -10.72998246	     -5.48119098	     -0.69707925	      2.72560101	     -6.00470697
      1.95000000	      4.11659861	     -4.90136986	     60.66513151	      0.99572104	      0.99431153	      0.68869327	     22.49681375	      1.79266414	      1.05254773	    -22.50118933	      1.38106162	     14.10109156	      5.16374188	     -5.90249709	     -9.86031589	    -57.78446582	    -10.42647126	     -5.66019521	     -1.13608784	      2.99186773	     -5.83334950
      1.96000000	      4.44474131	     -4.73096027	     61.52760980	      1.00089921	      0.99605470	      0.68070904	     21.55253839	      1.83760205	      0.36541057	    -22.58919088	      2.00158756	     13.80904053	      6.69578267	     -6.21783247	     -9.91567528	    -60.00515934	     -9.81323282	     -5.91510314	     -1.55497406	      3.14666676	     -5.65708916
      1.97000000	      4.69669206	     -4.52375302	     62.42338574	      1.00573943	      0.99778455	      0.67274279	     20.58512250	      1.79138650	     -0.35247710	    -22.60339823	      2.63523785	     13.57786803	      8.20048950	     -6.35573622	     -9.89707478	    -61.86844007	     -8.94954195	     -6.18870981	     -1.95104774	      3.21043989	     -5.46390977
      1.98000000	      4.88663503	     -4.28545354	     63.34320403	      1.01028915	      0.99950950	      0.66480104	     19.58887079	      1.67749485	     -1.06813325	    -22.54364185	      3.25410285	     13.43873734	      9.64922280	     -6.35451520	     -9.85686019	    -63.36065853	     -7.88330153	     -6.43301391	     -2.32450817	      3.20042343	     -5.26635197
      1.99000000	      5.03587314	     -4.04302476	     64.24795828	      1.01468809	      1.00120655	      0.65688996	     18.58562306	      1.54077085	     -1.79885878	    -22.42838475	      3.86774079	     13.36213243	     11.02749215	     -6.30096435	     -9.89471129	    -64.48067700	     -6.70273315	     -6.64580177	     -2.65169514	      3.14344406	     -5.00949206
      2.00000000	      5.15538988	     -3.79185591	     65.12472610	      1.01893999	      1.00287200	      0.64905438	     17.57202158	      1.39985570	     -2.47776499	    -22.26773701	      4.45217332	     13.35148179	     12.31821123	     -6.21497692	    -10.01160937	    -65.24765445	     -5.44657668	     -6.82107266	     -2.95695994	      3.05236945	     -4.70458897
      2.01000000	      5.26957386	     -3.55829344	     65.96645624	      1.02310054	      1.00449870	      0.64120444	     16.53911906	      1.28266245	     -3.16566825	    -22.02400430	      4.99737498	     13.40852529	     13.51824051	     -6.16575110	    -10.24352402	    -65.67181927	     -4.18912525	     -6.98377155	     -3.20896154	      2.96902524	     -4.36207229
      2.02000000	      5.34057768	     -3.35190770	     66.69584605	      1.02726875	      1.00599917	      0.63349001	     15.56549435	      1.18739450	     -3.72060407	    -21.78186216	      5.53204101	     13.44507202	     14.64370116	     -6.15169130	    -10.66145679	    -65.77840127	     -2.92974052	     -7.13257948	     -3.40369653	      2.84541442	     -3.89556434
      2.03000000	      5.49260855	     -3.13916390	     67.45756576	      1.03126031	      1.00752132	      0.62570639	     14.48497441	      1.17216715	     -4.33726345	    -21.41134048	      5.98518351	     13.62642412	     15.63957618	     -6.24237545	    -11.08356511	    -65.59683978	     -1.77867062	     -7.33705257	     -3.61883474	      2.81463077	     -3.49084008
      2.04000000	      5.60748451	     -2.96190414	     68.10156218	      1.03525073	      1.00887946	      0.61802956	     13.47424511	      1.18030212	     -4.82963755	    -21.04981572	      6.42076531	     13.78710982	     16.57060570	     -6.38761720	    -11.67905920	    -65.14341862	     -0.69078261	     -7.55283958	     -3.77687297	      2.75856321	     -2.97155345
      2.05000000	      5.72087635	     -2.81062217	     68.69230144	      1.03915263	      1.01010939	      0.61039341	     12.48825907	      1.21998941	     -5.28033918	    -20.66590454	      6.81783709	     13.95063939	     17.42993546	     -6.59415582	    -12.35935064	    -64.43938584	      0.30997018	     -7.77975998	     -3.90468973	      2.71221026	     -2.41303233
      2.06000000	      5.81644790	     -2.69067349	     69.23509922	      1.04294716	      1.01119031	      0.60278491	     11.54188976	      1.27255510	     -5.69148240	    -20.26657358	      7.18419900	     14.10418167	     18.23347007	     -6.84342960	    -13.12034925	    -63.50037361	      1.22744449	     -7.99708967	     -3.99146048	      2.66374759	     -1.84497549
      2.07000000	      5.88660926	     -2.60066825	     69.74288320	      1.04660879	      1.01211595	      0.59520446	     10.64031080	      1.32463558	     -6.07294744	    -19.85920171	      7.52955449	     14.24411299	     18.98991216	     -7.11099423	    -13.93430566	    -62.34186358	      2.06361145	     -8.19753550	     -4.04227777	      2.60224683	     -1.27356020
      2.08000000	      5.92146726	     -2.53765696	     70.22594830	      1.05011176	      1.01287786	      0.58763636	      9.78982562	      1.35954111	     -6.44254816	    -19.45718562	      7.87111947	     14.36150859	     19.70483611	     -7.37183601	    -14.78472893	    -60.97823787	      2.82631398	     -8.37605079	     -4.05802846	      2.51693484	     -0.70696154
      2.09000000	      5.91696863	     -2.48951878	     70.68898149	      1.05345399	      1.01348774	      0.58006540	      8.97918411	      1.36545926	     -6.81292090	    -19.06071389	      8.22289976	     14.45593982	     20.37010147	     -7.60972115	    -15.66563472	    -59.42307136	      3.50852513	     -8.52955662	     -4.05102103	      2.39759775	     -0.15097102
      2.10000000	      5.87252264	     -2.45482040	     71.13955524	      1.05661763	      1.01394024	      0.57246561	      8.20665240	      1.33894674	     -7.19103547	    -18.67487757	      8.60190757	     14.51598622	     20.98891363	     -7.81164402	    -16.56683035	    -57.69368111	      4.11036271	     -8.63291099	     -4.02064113	      2.24582658	      0.38228514
      2.11000000	      5.79533782	     -2.43034059	     71.57909008	      1.05959113	      1.01424258	      0.56484571	      7.46591786	      1.28396549	     -7.58335440	    -18.29689913	      9.00916985	     14.54872686	     21.56318700	     -7.97369395	    -17.47685100	    -55.80730710	      4.62257753	     -8.66917784	     -3.97745546	      2.06996337	      0.88548311
      2.12000000	      5.69566907	     -2.40110734	     72.01127512	      1.06236302	      1.01442168	      0.55718706	      6.73607988	      1.20277227	     -7.99472211	    -17.92803102	      9.43683302	     14.57425465	     22.07856622	     -8.08634130	    -18.37582748	    -53.77735640	      5.04892565	     -8.63258726	     -3.93896718	      1.87413162	      1.38614894
      2.13000000	      5.59034342	     -2.36776414	     72.44052864	      1.06493114	      1.01448234	      0.54948784	      6.01387094	      1.11025560	     -8.42998340	    -17.57385354	      9.86200026	     14.60585371	     22.53945772	     -8.16619947	    -19.26411816	    -51.62580136	      5.40090828	     -8.51479423	     -3.91056694	      1.67972791	      1.85801105
      2.14000000	      5.49231242	     -2.34246377	     72.87417033	      1.06727689	      1.01440610	      0.54176148	      5.30219863	      1.02557324	     -8.87139061	    -17.22497795	     10.28621810	     14.63135655	     22.96741564	     -8.21472215	    -20.11097811	    -49.37205139	      5.69734970	     -8.33066399	     -3.88380768	      1.50624547	      2.29423112
      2.15000000	      5.41761958	     -2.32087299	     73.31808219	      1.06940722	      1.01419356	      0.53400273	      4.59256177	      0.96233579	     -9.33082227	    -16.88393978	     10.68092248	     14.65020043	     23.36361174	     -8.24863098	    -20.91477677	    -47.04004746	      5.95005868	     -8.09489206	     -3.86771623	      1.36842588	      2.69010449
